<svg width="35" height="35" viewBox="0 0 35 35" fill="currentColor" xmlns="http://www.w3.org/2000/svg">
<path d="M11.6644 3.5C7.16222 3.5 3.5 7.16561 3.5 11.6689V23.3356C3.5 27.8378 7.16561 31.5 11.6689 31.5H23.3356C27.8378 31.5 31.5 27.8344 31.5 23.3311V11.6644C31.5 7.16222 27.8344 3.5 23.3311 3.5H11.6644ZM25.6667 8.16667C26.3107 8.16667 26.8333 8.68933 26.8333 9.33333C26.8333 9.97733 26.3107 10.5 25.6667 10.5C25.0227 10.5 24.5 9.97733 24.5 9.33333C24.5 8.68933 25.0227 8.16667 25.6667 8.16667ZM17.5 10.5C21.3605 10.5 24.5 13.6395 24.5 17.5C24.5 21.3605 21.3605 24.5 17.5 24.5C13.6395 24.5 10.5 21.3605 10.5 17.5C10.5 13.6395 13.6395 10.5 17.5 10.5ZM17.5 12.8333C16.2623 12.8333 15.0753 13.325 14.2002 14.2002C13.325 15.0753 12.8333 16.2623 12.8333 17.5C12.8333 18.7377 13.325 19.9247 14.2002 20.7998C15.0753 21.675 16.2623 22.1667 17.5 22.1667C18.7377 22.1667 19.9247 21.675 20.7998 20.7998C21.675 19.9247 22.1667 18.7377 22.1667 17.5C22.1667 16.2623 21.675 15.0753 20.7998 14.2002C19.9247 13.325 18.7377 12.8333 17.5 12.8333Z" fill="black"/>
</svg>
